<svg xmlns="http://www.w3.org/2000/svg" viewBox="0 0 120.33 20"><defs><style>.cls-1{isolation:isolate;}.cls-2{fill:#165225;}.cls-3{fill:#134f23;}.cls-4{fill:#236230;}.cls-5{fill:#1d5a2b;}.cls-6{fill:#1c582a;}.cls-7{fill:#fff;}</style></defs><title>CrossCountrySkiing</title><g id="Layer_2" data-name="Layer 2"><g id="Layer_1-2" data-name="Layer 1"><g class="cls-1"><rect class="cls-2" width="120.33"/><polygon class="cls-3" points="118.24 17.91 120.33 20 0 20 2.09 17.91 118.24 17.91"/><rect class="cls-4" x="2.09" y="2.09" width="116.15" height="15.82"/><polygon class="cls-5" points="118.24 2.09 120.33 0 120.33 20 118.24 17.91 118.24 2.09"/><polygon class="cls-3" points="2.09 17.91 0 20 0 0 2.09 2.09 2.09 17.91"/><polygon class="cls-6" points="2.09 2.09 0 0 120.33 0 118.24 2.09 2.09 2.09"/></g><path class="cls-7" d="M11.39,9.27c0-1-.21-1.49-.86-1.49s-.9.73-.9,2.75.3,2.55.92,2.55.9-.27.9-1.81h1.44c0,1.54-.38,2.87-2.27,2.87-2.16,0-2.43-1.54-2.43-3.71s.27-3.71,2.43-3.71,2.21,1.51,2.21,2.55Z"/><path class="cls-7" d="M14,6.86h2.66a1.69,1.69,0,0,1,1.9,1.84c0,1-.38,1.59-1.19,1.76v0c1,.13,1.13.67,1.15,2.18,0,.75.05,1.14.32,1.28V14H17.28a1.39,1.39,0,0,1-.18-.75l0-1.37c0-.56-.27-.9-.85-.9h-.77v3H14ZM15.44,10H16a.94.94,0,0,0,1.08-1.07.89.89,0,0,0-1-1h-.68Z"/><path class="cls-7" d="M22.07,6.72c2.16,0,2.43,1.54,2.43,3.71s-.27,3.71-2.43,3.71-2.43-1.54-2.43-3.71S19.91,6.72,22.07,6.72Zm0,6.36c.85,0,1-.73,1-2.65s-.14-2.65-1-2.65-1,.74-1,2.65S21.22,13.08,22.07,13.08Z"/><path class="cls-7" d="M26.88,11.77V12c0,.67.19,1.1.95,1.1a.82.82,0,0,0,.86-.88c0-.65-.33-.89-1.28-1.22-1.28-.44-1.87-1-1.87-2.16a2,2,0,0,1,2.21-2.1C29,6.72,30,7.27,30,8.64v.2H28.58c0-.67-.23-1.06-.78-1.06a.74.74,0,0,0-.82.83c0,.44.13.71.74,1l1.11.48A1.82,1.82,0,0,1,30.19,12c0,1.51-.92,2.19-2.48,2.19s-2.27-.76-2.27-2.08v-.29Z"/><path class="cls-7" d="M32.53,11.77V12c0,.67.19,1.1.95,1.1a.82.82,0,0,0,.86-.88c0-.65-.33-.89-1.28-1.22-1.28-.44-1.87-1-1.87-2.16a2,2,0,0,1,2.21-2.1c1.28,0,2.21.55,2.21,1.92v.2H34.23c0-.67-.23-1.06-.78-1.06a.74.74,0,0,0-.82.83c0,.44.13.71.74,1l1.11.48A1.82,1.82,0,0,1,35.84,12c0,1.51-.92,2.19-2.48,2.19s-2.27-.76-2.27-2.08v-.29Z"/><path class="cls-7" d="M39.67,10.52V11.7H36.85V10.52Z"/><path class="cls-7" d="M44,9.27c0-1-.21-1.49-.85-1.49s-.9.73-.9,2.75.3,2.55.92,2.55.89-.27.89-1.81h1.44c0,1.54-.38,2.87-2.27,2.87-2.15,0-2.42-1.54-2.42-3.71s.27-3.71,2.42-3.71,2.21,1.51,2.21,2.55Z"/><path class="cls-7" d="M49,6.72c2.16,0,2.43,1.54,2.43,3.71s-.27,3.71-2.43,3.71-2.42-1.54-2.42-3.71S46.81,6.72,49,6.72Zm0,6.36c.85,0,1-.73,1-2.65s-.14-2.65-1-2.65-1,.74-1,2.65S48.12,13.08,49,13.08Z"/><path class="cls-7" d="M54,6.86v5c0,.71.17,1.24.84,1.24s.84-.53.84-1.24v-5h1.44v5a2,2,0,0,1-2.28,2.3c-1.17,0-2.27-.39-2.27-2.3v-5Z"/><path class="cls-7" d="M60,6.86l1.74,4.89h0V6.86h1.32V14H61.44L59.68,9h0v5H58.34V6.86Z"/><path class="cls-7" d="M68.63,6.86V8H67.07v6H65.63V8H64.07V6.86Z"/><path class="cls-7" d="M69.62,6.86h2.66a1.69,1.69,0,0,1,1.9,1.84c0,1-.38,1.59-1.19,1.76v0c1,.13,1.13.67,1.15,2.18,0,.75,0,1.14.32,1.28V14H72.9a1.39,1.39,0,0,1-.18-.75l0-1.37c0-.56-.27-.9-.85-.9h-.77v3H69.62ZM71.06,10h.6a.94.94,0,0,0,1.08-1.07.89.89,0,0,0-1-1h-.68Z"/><path class="cls-7" d="M76.51,6.86l.94,2.76h0l1-2.76H80l-1.85,4.33V14H76.74V11.19L74.89,6.86Z"/><path class="cls-7" d="M84.62,11.77V12c0,.67.19,1.1.95,1.1a.82.82,0,0,0,.86-.88c0-.65-.33-.89-1.28-1.22-1.28-.44-1.87-1-1.87-2.16a2,2,0,0,1,2.21-2.1c1.28,0,2.21.55,2.21,1.92v.2H86.32c0-.67-.23-1.06-.78-1.06a.74.74,0,0,0-.82.83c0,.44.13.71.74,1l1.11.48A1.82,1.82,0,0,1,87.93,12c0,1.51-.92,2.19-2.48,2.19s-2.27-.76-2.27-2.08v-.29Z"/><path class="cls-7" d="M90.41,6.86V9.72h0l1.82-2.86h1.56L91.87,9.92,94,14H92.41l-1.47-2.93-.53.81V14H89V6.86Z"/><path class="cls-7" d="M94.9,14V6.86h1.44V14Z"/><path class="cls-7" d="M97.73,14V6.86h1.44V14Z"/><path class="cls-7" d="M102.18,6.86l1.74,4.89h0V6.86h1.32V14h-1.64l-1.76-5h0v5h-1.32V6.86Z"/><path class="cls-7" d="M109.72,9c0-.53-.24-1.2-.82-1.2s-1,.72-1,2.5.16,2.8,1,2.8a1,1,0,0,0,.89-1.14v-.73h-1V10.15h2.33V14h-1.06v-.66h0a1.6,1.6,0,0,1-1.5.8c-1.77,0-2.12-1.32-2.12-3.79s.56-3.63,2.4-3.63c1.58,0,2.22.81,2.22,2.26Z"/></g></g></svg>