<svg xmlns="http://www.w3.org/2000/svg" viewBox="0 0 120.33 20.01"><defs><style>.cls-1{isolation:isolate;}.cls-2{fill:#165225;}.cls-3{fill:#134f23;}.cls-4{fill:#236230;}.cls-5{fill:#1d5a2b;}.cls-6{fill:#1c582a;}.cls-7{fill:#fff;}</style></defs><title>DownhillSkiing</title><g id="Layer_2" data-name="Layer 2"><g id="Layer_1-2" data-name="Layer 1"><g class="cls-1"><rect class="cls-2" width="120.33"/><polygon class="cls-3" points="118.24 17.92 120.33 20.01 0 20.01 2.09 17.92 118.24 17.92"/><rect class="cls-4" x="2.09" y="2.09" width="116.15" height="15.83"/><polygon class="cls-5" points="118.24 2.09 120.33 0 120.33 20.01 118.24 17.92 118.24 2.09"/><polygon class="cls-3" points="2.09 17.92 0 20.01 0 0 2.09 2.09 2.09 17.92"/><polygon class="cls-6" points="2.09 2.09 0 0 120.33 0 118.24 2.09 2.09 2.09"/></g><path class="cls-7" d="M20.65,6.87H23c2,0,2.36,1.37,2.36,3.46,0,2.53-.54,3.67-2.45,3.67H20.65Zm1.44,6.07h.64c1,0,1.2-.63,1.2-2.56,0-1.62-.13-2.45-1.23-2.45h-.61Z"/><path class="cls-7" d="M29.13,6.73c2.16,0,2.43,1.54,2.43,3.7s-.27,3.71-2.43,3.71S26.7,12.6,26.7,10.43,27,6.73,29.13,6.73Zm0,6.35c.85,0,1-.73,1-2.65s-.14-2.64-1-2.64-1,.74-1,2.64S28.28,13.08,29.13,13.08Z"/><path class="cls-7" d="M32.51,6.87h1.38l.79,5.27h0l.84-5.27h1.38l.84,5.27h0l.79-5.27H40L38.65,14H37l-.8-5.17h0L35.42,14H33.81Z"/><path class="cls-7" d="M42.84,6.87l1.74,4.88h0V6.87h1.32V14H44.28L42.52,9h0v5H41.18V6.87Z"/><path class="cls-7" d="M47.49,6.87h1.44V9.6h1.68V6.87h1.44V14H50.61V10.83H48.93V14H47.49Z"/><path class="cls-7" d="M53.66,14V6.87H55.1V14Z"/><path class="cls-7" d="M56.7,14V6.87h1.44v6h2.55V14Z"/><path class="cls-7" d="M61.94,14V6.87h1.44v6h2.55V14Z"/><path class="cls-7" d="M71.13,11.77V12c0,.67.19,1.1,1,1.1a.82.82,0,0,0,.86-.88c0-.65-.33-.89-1.28-1.22-1.28-.44-1.87-1-1.87-2.15A2,2,0,0,1,72,6.73c1.28,0,2.21.55,2.21,1.92v.2H72.83c0-.67-.23-1.06-.78-1.06a.74.74,0,0,0-.82.83c0,.44.13.71.74,1l1.11.49A1.81,1.81,0,0,1,74.44,12c0,1.51-.92,2.19-2.48,2.19s-2.27-.76-2.27-2.08v-.29Z"/><path class="cls-7" d="M77.17,6.87V9.73h0L79,6.87h1.56L78.63,9.92,80.79,14H79.17L77.7,11.07l-.53.81V14H75.73V6.87Z"/><path class="cls-7" d="M81.91,14V6.87h1.44V14Z"/><path class="cls-7" d="M85,14V6.87h1.44V14Z"/><path class="cls-7" d="M89.69,6.87l1.74,4.88h0V6.87h1.32V14H91.13L89.37,9h0v5H88V6.87Z"/><path class="cls-7" d="M97.48,9c0-.53-.24-1.2-.82-1.2s-1,.72-1,2.5.16,2.79,1,2.79a1,1,0,0,0,.89-1.14v-.73h-1V10.16h2.33V14H97.88v-.66h0a1.6,1.6,0,0,1-1.5.8c-1.77,0-2.12-1.32-2.12-3.79s.56-3.62,2.4-3.62c1.58,0,2.22.81,2.22,2.26Z"/></g></g></svg>