<svg xmlns="http://www.w3.org/2000/svg" viewBox="0 0 120.33 20"><defs><style>.cls-1{isolation:isolate;}.cls-2{fill:#165225;}.cls-3{fill:#134f23;}.cls-4{fill:#236230;}.cls-5{fill:#1d5a2b;}.cls-6{fill:#1c582a;}.cls-7{fill:#fff;}</style></defs><title>IceFishing</title><g id="Layer_2" data-name="Layer 2"><g id="Layer_1-2" data-name="Layer 1"><g class="cls-1"><rect class="cls-2" width="120.33"/><polygon class="cls-3" points="118.24 17.91 120.33 20 0 20 2.09 17.91 118.24 17.91"/><rect class="cls-4" x="2.09" y="2.09" width="116.15" height="15.82"/><polygon class="cls-5" points="118.24 2.09 120.33 0 120.33 20 118.24 17.91 118.24 2.09"/><polygon class="cls-3" points="2.09 17.91 0 20 0 0 2.09 2.09 2.09 17.91"/><polygon class="cls-6" points="2.09 2.09 0 0 120.33 0 118.24 2.09 2.09 2.09"/></g><path class="cls-7" d="M34.1,14V6.86h1.44V14Z"/><path class="cls-7" d="M40.2,9.27c0-1-.21-1.49-.86-1.49s-.9.73-.9,2.75.3,2.55.92,2.55.9-.27.9-1.81H41.7c0,1.54-.38,2.87-2.27,2.87-2.16,0-2.43-1.54-2.43-3.71s.27-3.71,2.43-3.71,2.21,1.51,2.21,2.55Z"/><path class="cls-7" d="M47.05,6.86V8H44.5V9.72h2.4V10.9H44.5v1.92h2.65V14H43.06V6.86Z"/><path class="cls-7" d="M51.27,6.86h4V8H52.71V9.72h2.4V10.9h-2.4V14H51.27Z"/><path class="cls-7" d="M56.54,14V6.86H58V14Z"/><path class="cls-7" d="M60.77,11.77V12c0,.67.19,1.1.95,1.1a.82.82,0,0,0,.86-.88c0-.65-.33-.89-1.28-1.22-1.28-.44-1.87-1-1.87-2.16a2,2,0,0,1,2.21-2.1c1.28,0,2.21.55,2.21,1.92v.2H62.47c0-.67-.23-1.06-.78-1.06a.74.74,0,0,0-.82.83c0,.44.13.71.74,1l1.11.48A1.82,1.82,0,0,1,64.08,12c0,1.51-.92,2.19-2.48,2.19s-2.27-.76-2.27-2.08v-.29Z"/><path class="cls-7" d="M65.37,6.86h1.44V9.59h1.68V6.86h1.44V14H68.49V10.83H66.81V14H65.37Z"/><path class="cls-7" d="M71.54,14V6.86H73V14Z"/><path class="cls-7" d="M76.24,6.86,78,11.75h0V6.86h1.32V14H77.68L75.92,9h0v5H74.58V6.86Z"/><path class="cls-7" d="M84,9c0-.53-.24-1.2-.82-1.2s-1,.72-1,2.5.16,2.8,1,2.8a1,1,0,0,0,.89-1.14v-.73h-1V10.15h2.33V14H84.43v-.66h0a1.6,1.6,0,0,1-1.5.8c-1.77,0-2.12-1.32-2.12-3.79s.56-3.63,2.4-3.63c1.58,0,2.22.81,2.22,2.26Z"/></g></g></svg>