<svg xmlns="http://www.w3.org/2000/svg" viewBox="0 0 131.61 11.68"><defs><style>.cls-1{fill:#fff;}</style></defs><title>ItsTimeFor</title><g id="Layer_2" data-name="Layer 2"><g id="Layer_1-2" data-name="Layer 1"><path class="cls-1" d="M0,.22H1.79V11.46H0Z"/><path class="cls-1" d="M10.14,1.73H7.46V.22h7.1V1.73H11.93v9.73H10.14Z"/><path class="cls-1" d="M16.28.22h1.79V2.3a2.1,2.1,0,0,1-1.79,2.42V3.81a1.17,1.17,0,0,0,.78-1.27V2.3h-.78Z"/><path class="cls-1" d="M21.69,8v.29c0,1.37.6,2.06,1.85,2.06a1.59,1.59,0,0,0,1.7-1.64,1.89,1.89,0,0,0-1.61-2L22.4,6.27c-1.64-.63-2.34-1.48-2.34-3.09C20.06,1.13,21.44,0,23.55,0c2.88,0,3.18,1.79,3.18,3v.25H24.94V3c0-1-.46-1.63-1.58-1.63A1.44,1.44,0,0,0,21.85,3c0,1,.49,1.44,1.69,1.9l1.21.44A2.88,2.88,0,0,1,27,8.3c0,2.39-1.45,3.38-3.71,3.38-2.79,0-3.42-1.85-3.42-3.43V8Z"/><path class="cls-1" d="M43.54,1.73H40.87V.22H48V1.73H45.34v9.73h-1.8Z"/><path class="cls-1" d="M53.64.22h1.79V11.46H53.64Z"/><path class="cls-1" d="M61.93.22h2.81l2,8.33h0l2-8.33h2.74V11.46h-1.7V2.11h0l-2.27,9.35H65.93L63.66,2.11h0v9.35h-1.7Z"/><path class="cls-1" d="M78,.22H84.1V1.73H79.82V4.85h4V6.36h-4V10h4.41v1.51H78Z"/><path class="cls-1" d="M98.82.22h6V1.73h-4.21V4.85h4V6.36h-4v5.1H98.82Z"/><path class="cls-1" d="M110.56,5.84c0-4,1.14-5.84,3.72-5.84S118,1.83,118,5.84s-1.14,5.84-3.72,5.84S110.56,9.86,110.56,5.84Zm5.64,0c0-3.77-.85-4.44-1.92-4.44s-1.92.67-1.92,4.44.85,4.54,1.92,4.54S116.2,9.67,116.2,5.79Z"/><path class="cls-1" d="M124.31.22h4a2.6,2.6,0,0,1,2.85,2.9c0,1.45-.64,2.56-1.87,2.75v0c1.12.11,1.7.72,1.76,2.29,0,.73,0,1.61.07,2.29a1.15,1.15,0,0,0,.53,1h-2a1.93,1.93,0,0,1-.3-1c-.06-.68-.05-1.3-.08-2.12,0-1.23-.41-1.77-1.63-1.77H126.1v4.88h-1.79Zm3.22,5a1.66,1.66,0,0,0,1.8-1.83c0-1.2-.52-1.83-1.7-1.83H126.1V5.23Z"/></g></g></svg>