<svg xmlns="http://www.w3.org/2000/svg" viewBox="0 0 298.72 32.74"><defs><style>.cls-1{fill:#9d9fa2;}.cls-2{fill:#d8833d;}.cls-3{fill:#fff;}.cls-4{fill:none;stroke:#231f20;stroke-width:0.39px;}</style></defs><title>Logo</title><g id="Layer_2" data-name="Layer 2"><g id="Layer_1-2" data-name="Layer 1"><path class="cls-1" d="M106.82,8.16h6.71l5.06,14.9h.06l4.8-14.9h6.7V29.83h-4.46V14.47h-.06l-5.31,15.36h-3.67l-5.31-15.2h-.06v15.2h-4.46Z"/><path class="cls-1" d="M142.84,7.65c6.7,0,10.65,5,10.65,11.44,0,6.25-4,11.25-10.65,11.25s-10.65-5-10.65-11.25C132.19,12.65,136.13,7.65,142.84,7.65Zm0,18.69c4.28,0,5.88-3.64,5.88-7.25,0-3.8-1.6-7.44-5.88-7.44S137,15.29,137,19.09C137,22.7,138.56,26.34,142.84,26.34Z"/><path class="cls-1" d="M155.52,8.16h4.73L169.3,22.7h.06V8.16h4.46V29.83h-4.77l-9-14.51H160V29.83h-4.46Z"/><path class="cls-1" d="M181.59,12.17h-6.5v-4h17.75v4h-6.49V29.83h-4.76Z"/><path class="cls-1" d="M197.79,8.16h4.89l8.1,21.67h-4.95L204.19,25h-8.1l-1.7,4.83h-4.82Zm-.45,13.29H203l-2.73-7.95h-.06Z"/><path class="cls-1" d="M211.44,8.16h4.74l9,14.54h.06V8.16h4.46V29.83H225l-9-14.51h-.06V29.83h-4.47Z"/><path class="cls-1" d="M238.63,8.16h4.89l8.1,21.67h-4.94L245,25h-8.11l-1.7,4.83h-4.82Zm-.45,13.29h5.61l-2.73-7.95H241Z"/><path class="cls-2" d="M17.13,15c-.29-3.8-3.38-5.77-7.27-5.77-5.39,0-8.27,4.77-8.27,9.66C1.59,24.7,4.3,29,9.86,29a7.39,7.39,0,0,0,7.48-6.69h1.59a8.82,8.82,0,0,1-9.07,8.07c-7,0-9.86-5.48-9.86-11.45s3.51-11,9.86-11c4.64,0,8.4,2.25,8.86,7.14Z"/><path class="cls-2" d="M21.81,19.31c-.08,5.05,2.6,9.65,7.9,9.65a7.42,7.42,0,0,0,7.69-6.4H39c-.84,5-4.18,7.78-9.28,7.78-6.27,0-9.57-4.93-9.48-10.87-.09-5.89,3-11.61,9.48-11.61,6.73,0,9.74,5.3,9.45,11.45Zm15.76-1.38c-.09-4.52-2.93-8.7-7.86-8.7-4.76,0-7.56,4.43-7.9,8.7Z"/><path class="cls-2" d="M41.41,8.36H43V13h.09a8,8,0,0,1,7.68-5.09c7.57,0,7.65,6.06,7.65,8.69V29.84H56.83V16.26c0-2.22-.25-7-6.1-7-4.8,0-7.73,3.72-7.73,9V29.84H41.41Z"/><path class="cls-2" d="M69.54,9.74H64.86v15c0,3.47,1.63,3.8,4.64,3.72v1.38c-3.26.2-6.4-.25-6.23-5.1v-15h-4V8.36h4V1.67h1.59V8.36h4.68Z"/><path class="cls-2" d="M72.59,13.12h.12c.84-2.8,4.35-5,8.24-4.89V9.82A7.27,7.27,0,0,0,75,11.91c-1.59,1.63-2.25,3-2.42,6.18V29.84H71V8.36h1.59Z"/><path class="cls-2" d="M97,25.87c0,1.25,0,2.59,1.42,2.59a7.91,7.91,0,0,0,1.17-.13v1.34a7.62,7.62,0,0,1-1.29.17c-2.51,0-2.88-1.38-2.88-3.14V25.57h-.09c-1,2.55-3.88,4.77-8,4.77s-7.19-1.55-7.19-6.06c0-5,4.35-6.06,7.9-6.35,7.1-.5,7.4-1,7.4-4.47,0-1-1.09-4.23-6-4.23-3.84,0-6.39,2-6.6,5.73H81.28c.21-4.72,3.14-7.1,8.19-7.1C93.23,7.86,97,9,97,13.46Zm-1.58-8.24c-1.26,1.42-4.68,1.26-7.78,1.68-3.76.41-5.89,1.75-5.89,5,0,2.59,1.88,4.68,5.64,4.68,7.23,0,8-6.19,8-7.31Z"/><path class="cls-2" d="M102.55,0V29.84H101V0Z"/><polygon class="cls-3" points="264.64 20.94 265.2 18.46 266.22 18.33 266.8 13.24 268.42 13.18 268.33 11.2 266.64 9.6 267.93 9.49 268.24 7.24 258 7.27 257.19 13.3 258.75 17.26 260.23 19.24 258.59 24.89 259.83 26.26 262.2 25 265.2 24.36 264.64 20.94"/><polygon class="cls-3" points="283.35 7.21 282.33 9.91 283.32 10.4 283.22 13.58 281.53 13.78 281.73 15.37 284.81 15.56 284.91 18.84 289.6 18.84 289.6 17.2 291.98 17.2 291.98 13.91 294.81 15.5 298.37 15.5 298.43 7.16 283.35 7.21"/><polygon class="cls-4" points="257.91 7.17 298.53 7.07 298.38 28.74 273.5 28.98 273.46 32.41 272.8 32.4 270.74 30.65 269.38 32.5 267.35 31.76 265.13 31.42 263.85 28.83 262.38 27.06 262.12 25.05 259.74 26.33 258.5 24.95 260.14 19.24 258.66 17.25 257.09 13.25 257.91 7.17"/><polygon class="cls-2" points="273.79 21.13 280.64 21.22 280.94 19.14 284.91 18.84 284.81 15.56 281.73 15.37 281.53 13.78 283.22 13.58 283.32 10.4 282.33 9.91 283.35 7.21 268.24 7.24 267.93 9.49 266.64 9.6 268.33 11.2 268.42 13.18 269.81 13.98 270.01 15.96 272.6 18.45 273.79 21.13"/><polygon class="cls-4" points="273.69 21.22 280.66 21.33 280.97 19.21 285.01 18.91 284.92 15.58 281.77 15.38 281.57 13.77 283.29 13.57 283.39 10.34 282.38 9.85 283.43 7.11 268.04 7.14 267.73 9.43 266.41 9.54 268.13 11.16 268.23 13.17 269.64 13.97 269.85 15.99 272.48 18.51 273.69 21.22"/><polygon class="cls-3" points="273.79 21.13 273.79 21.13 272.6 18.45 270.01 15.96 269.81 13.98 268.42 13.18 266.8 13.24 266.22 18.33 265.2 18.46 264.64 20.94 265.2 24.36 262.2 25 262.46 26.98 263.91 28.75 265.19 31.32 267.4 31.65 269.42 32.39 270.77 30.55 272.01 31.6 272.01 24.8 271.44 24.01 271.44 23.21 273.79 21.13"/><polygon class="cls-4" points="273.89 21.12 273.89 21.12 272.67 18.41 270.04 15.89 269.84 13.88 268.43 13.08 266.77 13.14 266.19 18.29 265.15 18.42 264.58 20.93 265.15 24.38 262.09 25.03 262.35 27.04 263.83 28.82 265.14 31.42 267.38 31.76 269.44 32.5 270.81 30.64 272.07 31.71 272.07 24.84 271.5 24.03 271.5 23.23 273.89 21.12"/><polygon class="cls-3" points="283.58 25.04 283.58 24.01 281.88 23.9 282.11 21.28 280.64 21.23 273.79 21.13 271.44 23.21 271.44 24.01 272.01 24.8 272.01 31.6 272.83 32.28 273.48 32.29 273.53 28.89 284.91 28.78 285.05 25.04 283.58 25.04"/><polygon class="cls-4" points="283.66 25.01 283.66 23.96 281.94 23.85 282.17 21.19 280.68 21.13 273.73 21.03 271.34 23.15 271.34 23.96 271.92 24.77 271.92 31.69 272.75 32.38 273.41 32.39 273.46 28.93 285.01 28.82 285.16 25.01 283.66 25.01"/><polygon class="cls-3" points="291.98 13.91 291.98 17.2 289.6 17.2 289.6 18.84 284.91 18.84 280.94 19.14 280.64 21.22 282.11 21.28 281.88 23.9 283.58 24.01 283.58 25.04 285.05 25.04 284.91 28.78 298.28 28.66 298.37 15.5 294.81 15.5 291.98 13.91"/><polygon class="cls-4" points="292.01 13.74 292.01 17.09 289.6 17.09 289.6 18.76 284.86 18.76 280.84 19.07 280.54 21.19 282.02 21.25 281.8 23.91 283.51 24.02 283.51 25.07 285 25.07 284.86 28.88 298.38 28.76 298.47 15.36 294.87 15.36 292.01 13.74"/></g></g></svg>