<svg xmlns="http://www.w3.org/2000/svg" viewBox="0 0 120.33 20"><defs><style>.cls-1{isolation:isolate;}.cls-2{fill:#8e5522;}.cls-3{fill:#854f1e;}.cls-4{fill:#c27635;}.cls-5{fill:#aa672d;}.cls-6{fill:#a4632b;}.cls-7{fill:#fff;}</style></defs><title>SnowShoeing</title><g id="Layer_2" data-name="Layer 2"><g id="Layer_1-2" data-name="Layer 1"><g class="cls-1"><rect class="cls-2" width="120.33"/><polygon class="cls-3" points="118.24 17.91 120.33 20 0 20 2.09 17.91 118.24 17.91"/><rect class="cls-4" x="2.09" y="2.09" width="116.15" height="15.82"/><polygon class="cls-5" points="118.24 2.09 120.33 0 120.33 20 118.24 17.91 118.24 2.09"/><polygon class="cls-3" points="2.09 17.91 0 20 0 0 2.09 2.09 2.09 17.91"/><polygon class="cls-6" points="2.09 2.09 0 0 120.33 0 118.24 2.09 2.09 2.09"/></g><path class="cls-7" d="M29,11.77V12c0,.67.19,1.1.95,1.1a.82.82,0,0,0,.86-.88c0-.65-.33-.89-1.28-1.22-1.28-.44-1.87-1-1.87-2.16a2,2,0,0,1,2.21-2.1c1.28,0,2.21.55,2.21,1.92v.2H30.73c0-.67-.23-1.06-.78-1.06a.74.74,0,0,0-.82.83c0,.44.13.71.74,1l1.11.48A1.82,1.82,0,0,1,32.34,12c0,1.51-.92,2.19-2.48,2.19s-2.27-.76-2.27-2.08v-.29Z"/><path class="cls-7" d="M35.29,6.86,37,11.75h0V6.86h1.32V14H36.73L35,9h0v5H33.63V6.86Z"/><path class="cls-7" d="M42.23,6.72c2.16,0,2.43,1.54,2.43,3.71s-.27,3.71-2.43,3.71S39.8,12.6,39.8,10.43,40.07,6.72,42.23,6.72Zm0,6.36c.85,0,1-.73,1-2.65s-.14-2.65-1-2.65-1,.74-1,2.65S41.38,13.08,42.23,13.08Z"/><path class="cls-7" d="M45.61,6.86H47l.79,5.28h0l.84-5.28H50l.84,5.28h0l.79-5.28H53L51.75,14H50.14l-.8-5.18h0L48.52,14H46.91Z"/><path class="cls-7" d="M55.39,11.77V12c0,.67.19,1.1,1,1.1a.82.82,0,0,0,.86-.88c0-.65-.33-.89-1.28-1.22-1.28-.44-1.87-1-1.87-2.16a2,2,0,0,1,2.21-2.1c1.28,0,2.21.55,2.21,1.92v.2H57.09c0-.67-.23-1.06-.78-1.06a.74.74,0,0,0-.82.83c0,.44.13.71.74,1l1.11.48A1.82,1.82,0,0,1,58.7,12c0,1.51-.92,2.19-2.48,2.19S54,13.38,54,12.06v-.29Z"/><path class="cls-7" d="M60,6.86h1.44V9.59h1.68V6.86h1.44V14H63.11V10.83H61.43V14H60Z"/><path class="cls-7" d="M68.41,6.72c2.16,0,2.43,1.54,2.43,3.71s-.27,3.71-2.43,3.71S66,12.6,66,10.43,66.25,6.72,68.41,6.72Zm0,6.36c.85,0,1-.73,1-2.65s-.14-2.65-1-2.65-1,.74-1,2.65S67.56,13.08,68.41,13.08Z"/><path class="cls-7" d="M76.26,6.86V8H73.71V9.72h2.4V10.9h-2.4v1.92h2.65V14H72.27V6.86Z"/><path class="cls-7" d="M77.7,14V6.86h1.44V14Z"/><path class="cls-7" d="M82.4,6.86l1.74,4.89h0V6.86h1.32V14H83.84L82.08,9h0v5H80.74V6.86Z"/><path class="cls-7" d="M90.19,9c0-.53-.24-1.2-.82-1.2s-1,.72-1,2.5.16,2.8,1,2.8a1,1,0,0,0,.89-1.14v-.73h-1V10.15h2.32V14h-1v-.66h0a1.6,1.6,0,0,1-1.5.8c-1.77,0-2.12-1.32-2.12-3.79s.56-3.63,2.4-3.63c1.58,0,2.21.81,2.21,2.26Z"/></g></g></svg>