<svg xmlns="http://www.w3.org/2000/svg" viewBox="0 0 120.33 20"><defs><style>.cls-1{isolation:isolate;}.cls-2{fill:#8e5522;}.cls-3{fill:#854f1e;}.cls-4{fill:#c27635;}.cls-5{fill:#aa672d;}.cls-6{fill:#a4632b;}.cls-7{fill:#fff;}</style></defs><title>Snowmobiling</title><g id="Layer_2" data-name="Layer 2"><g id="Layer_1-2" data-name="Layer 1"><g class="cls-1"><rect class="cls-2" width="120.33"/><polygon class="cls-3" points="118.24 17.91 120.33 20 0 20 2.09 17.91 118.24 17.91"/><rect class="cls-4" x="2.09" y="2.09" width="116.15" height="15.82"/><polygon class="cls-5" points="118.24 2.09 120.33 0 120.33 20 118.24 17.91 118.24 2.09"/><polygon class="cls-3" points="2.09 17.91 0 20 0 0 2.09 2.09 2.09 17.91"/><polygon class="cls-6" points="2.09 2.09 0 0 120.33 0 118.24 2.09 2.09 2.09"/></g><path class="cls-7" d="M26.49,11.77V12c0,.67.19,1.1,1,1.1a.82.82,0,0,0,.86-.88c0-.65-.33-.89-1.28-1.22-1.28-.44-1.87-1-1.87-2.16a2,2,0,0,1,2.21-2.1c1.28,0,2.21.55,2.21,1.92v.2H28.19c0-.67-.23-1.06-.78-1.06a.74.74,0,0,0-.82.83c0,.44.13.71.74,1l1.11.48A1.82,1.82,0,0,1,29.8,12c0,1.51-.92,2.19-2.48,2.19s-2.27-.76-2.27-2.08v-.29Z"/><path class="cls-7" d="M32.75,6.86l1.74,4.89h0V6.86h1.32V14H34.19L32.43,9h0v5H31.09V6.86Z"/><path class="cls-7" d="M39.69,6.72c2.16,0,2.43,1.54,2.43,3.71s-.27,3.71-2.43,3.71-2.43-1.54-2.43-3.71S37.53,6.72,39.69,6.72Zm0,6.36c.85,0,1-.73,1-2.65s-.14-2.65-1-2.65-1,.74-1,2.65S38.84,13.08,39.69,13.08Z"/><path class="cls-7" d="M43.07,6.86h1.38l.79,5.28h0l.84-5.28h1.38l.84,5.28h0l.79-5.28h1.38L49.21,14H47.6l-.8-5.18h0L46,14H44.37Z"/><path class="cls-7" d="M51.75,6.86h2.14l1,5h0l1-5h2.13V14H56.77V8.3h0L55.48,14H54.36L53.09,8.3h0V14H51.75Z"/><path class="cls-7" d="M62,6.72c2.16,0,2.43,1.54,2.43,3.71s-.27,3.71-2.43,3.71-2.43-1.54-2.43-3.71S59.81,6.72,62,6.72Zm0,6.36c.85,0,1-.73,1-2.65s-.14-2.65-1-2.65-1,.74-1,2.65S61.12,13.08,62,13.08Z"/><path class="cls-7" d="M65.83,6.86h2.41c1.18,0,2,.44,2,1.81a1.49,1.49,0,0,1-1.08,1.56v0a1.51,1.51,0,0,1,1.3,1.66A1.94,1.94,0,0,1,68.26,14H65.83Zm1.44,2.93h.41c.79,0,1.15-.27,1.15-.94s-.33-.93-1-.93h-.52Zm0,3.15h.56c.69,0,1.16-.25,1.16-1.08s-.47-1.07-1.1-1.07h-.62Z"/><path class="cls-7" d="M71.92,14V6.86h1.44V14Z"/><path class="cls-7" d="M75,14V6.86H76.4v6H79V14Z"/><path class="cls-7" d="M80.24,14V6.86h1.44V14Z"/><path class="cls-7" d="M84.94,6.86l1.74,4.89h0V6.86H88V14H86.38L84.62,9h0v5H83.28V6.86Z"/><path class="cls-7" d="M92.72,9c0-.53-.24-1.2-.81-1.2s-1,.72-1,2.5.16,2.8,1,2.8a1.05,1.05,0,0,0,.88-1.14v-.73h-.94V10.15h2.32V14H93.12v-.66h0a1.6,1.6,0,0,1-1.49.8c-1.77,0-2.12-1.32-2.12-3.79s.56-3.63,2.4-3.63c1.57,0,2.21.81,2.21,2.26Z"/></g></g></svg>