<svg xmlns="http://www.w3.org/2000/svg" viewBox="0 0 120.33 20"><defs><style>.cls-1{isolation:isolate;}.cls-2{fill:#8e5522;}.cls-3{fill:#854f1e;}.cls-4{fill:#c27635;}.cls-5{fill:#aa672d;}.cls-6{fill:#a4632b;}.cls-7{fill:#fff;}</style></defs><title>StartPlanning</title><g id="Layer_2" data-name="Layer 2"><g id="Layer_1-2" data-name="Layer 1"><g class="cls-1"><rect class="cls-2" width="120.33"/><polygon class="cls-3" points="118.24 17.91 120.33 20 0 20 2.09 17.91 118.24 17.91"/><rect class="cls-4" x="2.09" y="2.09" width="116.15" height="15.82"/><polygon class="cls-5" points="118.24 2.09 120.33 0 120.33 20 118.24 17.91 118.24 2.09"/><polygon class="cls-3" points="2.09 17.91 0 20 0 0 2.09 2.09 2.09 17.91"/><polygon class="cls-6" points="2.09 2.09 0 0 120.33 0 118.24 2.09 2.09 2.09"/></g><path class="cls-7" d="M21.53,11.77V12c0,.67.19,1.1.95,1.1a.82.82,0,0,0,.86-.88c0-.65-.33-.89-1.28-1.22-1.28-.44-1.87-1-1.87-2.16a2,2,0,0,1,2.21-2.1c1.28,0,2.21.55,2.21,1.92v.2H23.23c0-.67-.23-1.06-.78-1.06a.74.74,0,0,0-.82.83c0,.44.13.71.74,1l1.11.48A1.82,1.82,0,0,1,24.84,12c0,1.51-.92,2.19-2.48,2.19s-2.27-.76-2.27-2.08v-.29Z"/><path class="cls-7" d="M30.36,6.86V8H28.8v6H27.36V8H25.8V6.86Z"/><path class="cls-7" d="M32.48,6.86h1.78L36.15,14h-1.5l-.33-1.51h-1.9L32.09,14h-1.5Zm.19,4.45h1.4L33.38,8.1h0Z"/><path class="cls-7" d="M37.33,6.86H40A1.69,1.69,0,0,1,41.88,8.7c0,1-.38,1.59-1.19,1.76v0c1,.13,1.13.67,1.15,2.18,0,.75,0,1.14.32,1.28V14H40.61a1.39,1.39,0,0,1-.18-.75l0-1.37c0-.56-.27-.9-.85-.9h-.77v3H37.33ZM38.77,10h.6a.94.94,0,0,0,1.08-1.07.89.89,0,0,0-1-1h-.68Z"/><path class="cls-7" d="M47.65,6.86V8H46.1v6H44.66V8H43.1V6.86Z"/><path class="cls-7" d="M51.68,6.86H54.2A1.89,1.89,0,0,1,56.15,9a2,2,0,0,1-2.26,2.15h-.77V14H51.68Zm1.44,3.23h.64c.57,0,1-.34,1-1.07s-.27-1.1-1-1.1h-.6Z"/><path class="cls-7" d="M57.44,14V6.86h1.44v6h2.55V14Z"/><path class="cls-7" d="M64.31,6.86h1.78L68,14h-1.5l-.33-1.51h-1.9L63.92,14h-1.5Zm.19,4.45h1.4L65.21,8.1h0Z"/><path class="cls-7" d="M70.82,6.86l1.74,4.89h0V6.86H73.9V14H72.26L70.5,9h0v5H69.16V6.86Z"/><path class="cls-7" d="M77.13,6.86l1.74,4.89h0V6.86h1.32V14H78.57L76.81,9h0v5H75.47V6.86Z"/><path class="cls-7" d="M81.83,14V6.86h1.43V14Z"/><path class="cls-7" d="M86.53,6.86l1.73,4.89h0V6.86H89.6V14H88L86.21,9h0v5H84.87V6.86Z"/><path class="cls-7" d="M94.31,9c0-.53-.24-1.2-.82-1.2s-1,.72-1,2.5.16,2.8,1,2.8a1,1,0,0,0,.89-1.14v-.73h-1V10.15h2.33V14H94.71v-.66h0a1.6,1.6,0,0,1-1.5.8c-1.76,0-2.11-1.32-2.11-3.79s.55-3.63,2.39-3.63c1.58,0,2.22.81,2.22,2.26Z"/><path class="cls-7" d="M97.59,12,97.4,9.18V6.86h1.38V9.18L98.59,12Zm1.19.67V14H97.4V12.68Z"/></g></g></svg>