<svg xmlns="http://www.w3.org/2000/svg" viewBox="0 0 285.58 14.97"><defs><style>.cls-1{fill:#fff;}</style></defs><title>WinterAdventure</title><g id="Layer_2" data-name="Layer 2"><g id="Layer_1-2" data-name="Layer 1"><path class="cls-1" d="M15.91,14.62H11.53L10,5.71h0L8.38,14.62H4L0,0H4.42L6.2,9h0L8,0h4L13.7,9.15h0L15.56,0H20Z"/><path class="cls-1" d="M25.12,0h4.51V14.62H25.12Z"/><path class="cls-1" d="M36.06,0h4.61l4.25,7.82h0V0h4.26V14.62H44.84l-4.48-8h0v8H36.06Z"/><path class="cls-1" d="M59.09,3.75H55V0H67.69V3.75H63.6V14.62H59.09Z"/><path class="cls-1" d="M73.45,0h12.1V3.75H78V5.57h6.9V9.05H78v1.82h7.82v3.75H73.45Z"/><path class="cls-1" d="M92,0h8.58c2.56,0,4.77,1.41,4.77,4.18a3.75,3.75,0,0,1-2.19,3.66c1.23.47,2,1.83,2.15,3.65a9.61,9.61,0,0,0,.49,3.13h-4.51a10.77,10.77,0,0,1-.36-2.25c-.13-1.39-.25-2.85-2-2.85h-2.4v5.1H92Zm4.5,6.39h2.36c.84,0,2-.14,2-1.45,0-.93-.51-1.46-2.23-1.46H96.46Z"/><path class="cls-1" d="M126.21,0h4.41l5.32,14.62h-4.67l-.61-2.09H126l-.66,2.09h-4.52Zm3.55,9.4-1.31-4.51h0L127,9.4Z"/><path class="cls-1" d="M141,0h7.39C153.3,0,155,3.6,155,7.29c0,4.48-2.37,7.33-7.47,7.33H141Zm4.5,10.87h1.76c2.81,0,3.22-2.27,3.22-3.64A3.23,3.23,0,0,0,147,3.75h-1.44Z"/><path class="cls-1" d="M169,14.62h-5L159.55,0h4.54l2.4,8.87h0L168.89,0h4.62Z"/><path class="cls-1" d="M178.43,0h12.1V3.75h-7.6V5.57h6.9V9.05h-6.9v1.82h7.82v3.75H178.43Z"/><path class="cls-1" d="M197,0h4.6l4.26,7.82h.05V0h4.25V14.62h-4.38l-4.48-8h0v8H197Z"/><path class="cls-1" d="M220,3.75H215.9V0h12.69V3.75H224.5V14.62H220Z"/><path class="cls-1" d="M247.62,9c0,4-2.2,6-6.66,6s-6.68-2-6.68-6V0h4.51V8c0,1.49,0,3.35,2.19,3.35s2.13-1.86,2.13-3.35V0h4.51Z"/><path class="cls-1" d="M254,0h8.58c2.56,0,4.77,1.41,4.77,4.18a3.74,3.74,0,0,1-2.19,3.66c1.23.47,2,1.83,2.15,3.65a9.89,9.89,0,0,0,.49,3.13h-4.5a10.17,10.17,0,0,1-.37-2.25c-.12-1.39-.24-2.85-2-2.85h-2.39v5.1H254Zm4.51,6.39h2.35c.84,0,2-.14,2-1.45,0-.93-.51-1.46-2.23-1.46h-2.11Z"/><path class="cls-1" d="M273.25,0h12.1V3.75h-7.59V5.57h6.9V9.05h-6.9v1.82h7.82v3.75H273.25Z"/></g></g></svg>